# File created by Blade
# Date/Time:  Wed Jan 21 19:13:57 2015
# Frame Rate: 120.000 fps
#------------------------------------------------------
:FULLY-SPECIFIED
:DEGREES
652
root -5.104344 33.640987 0.566275 25.126635 63.267266 -105.804597
RightUpLeg 12.445754 -6.553339 -29.351856
RightLeg 53.833071 -0.000000 -0.000000
RightFoot 26.338470 -20.557640 18.781084
RightToeBase 44.584059 -0.000000 -0.000000
LeftUpLeg -125.410093 29.610437 -8.273053
LeftLeg -10.788522 -0.000000 0.000000
LeftFoot -3.175799 4.917271 7.821251
LeftToeBase 2.309393 -0.000000 -0.000000
Spine -73.948022 2.495469 21.441608
RightShoulder -34.641658 2.291613 -36.547170
RightArm -20.918330 -19.418802 42.691585
RightForeArm -36.790704 -0.000000 14.636364
RightHand 3.720241 0.000000 24.630731
RightHandThumb1 -24.326973 -0.000000 -32.862282
LeftShoulder -25.779437 -16.486514 58.013390
LeftArm 44.968774 -44.807958 -5.493478
LeftForeArm 23.713441 0.000000 15.616484
LeftHand -27.347318 -0.000000 28.412219
LeftHandThumb1 -26.253704 0.000000 33.147579
Head -48.472575 32.842898 35.089139
653
root -5.045482 33.604989 0.585254 25.225089 63.618202 -105.419773
RightUpLeg 12.349047 -6.932146 -29.540173
RightLeg 54.085957 -0.000000 -0.000000
RightFoot 26.130409 -20.602465 18.818918
RightToeBase 44.508025 -0.000000 -0.000000
LeftUpLeg -124.743705 29.396598 -7.936514
LeftLeg -10.980363 -0.000000 0.000000
LeftFoot -3.323122 5.102815 7.779332
LeftToeBase 2.361571 -0.000000 -0.000000
Spine -73.914664 2.245822 21.481276
RightShoulder -34.794766 2.410947 -36.410863
RightArm -20.775640 -19.456099 42.687398
RightForeArm -36.654977 -0.000000 14.722345
RightHand 3.804361 -0.000000 24.331213
RightHandThumb1 -24.326973 -0.000000 -32.862282
LeftShoulder -25.659053 -16.284571 57.766332
LeftArm 45.962401 -44.807703 -7.141867
LeftForeArm 24.280924 -0.000000 16.528480
LeftHand -27.466797 0.000000 27.880060
LeftHandThumb1 -26.253704 0.000000 33.147579
Head -48.364469 32.765845 34.890025
654
root -4.982785 33.574676 0.603006 25.363687 63.955872 -104.997774
RightUpLeg 12.200119 -7.238690 -29.731216
RightLeg 54.367708 -0.000000 -0.000000
RightFoot 25.932104 -20.514207 18.868164
RightToeBase 44.483645 -0.000000 -0.000000
LeftUpLeg -124.116707 29.150393 -7.666385
LeftLeg -11.140084 -0.000000 0.000000
LeftFoot -3.455501 5.237972 7.827448
LeftToeBase 2.394038 -0.000000 -0.000000
Spine -73.914100 1.993448 21.564542
RightShoulder -34.839103 2.621084 -36.277696
RightArm -20.704915 -19.371905 42.641398
RightForeArm -36.753735 -0.000000 14.919067
RightHand 3.713789 -0.000000 24.294579
RightHandThumb1 -24.326973 -0.000000 -32.862282
LeftShoulder -25.550990 -15.956064 57.470604
LeftArm 47.110914 -44.791089 -9.042572
LeftForeArm 25.013540 0.000000 17.419660
LeftHand -27.536193 -0.000000 27.632483
LeftHandThumb1 -26.253704 0.000000 33.147579
Head -48.108960 32.758938 34.806437
655
root -4.920221 33.549079 0.618806 25.440105 64.316044 -104.641716
RightUpLeg 12.037226 -7.498086 -29.870023
RightLeg 54.675880 -0.000000 -0.000000
RightFoot 25.636612 -20.560685 19.107066
RightToeBase 44.494435 -0.000000 -0.000000
LeftUpLeg -123.482951 28.894108 -7.355950
LeftLeg -11.315407 -0.000000 0.000000
LeftFoot -3.524855 5.334130 7.741792
LeftToeBase 2.506495 -0.000000 -0.000000
Spine -73.939404 1.759900 21.656517
RightShoulder -34.830916 2.768414 -36.129839
RightArm -20.626702 -19.319456 42.635169
RightForeArm -36.790815 -0.000000 15.091787
RightHand 3.636469 0.000000 24.241393
RightHandThumb1 -24.326973 -0.000000 -32.862282
LeftShoulder -25.329503 -15.571962 57.144457
LeftArm 48.013714 -44.660218 -10.911013
LeftForeArm 25.682715 -0.000000 18.548933
LeftHand -27.817625 -0.000000 27.612683
LeftHandThumb1 -26.253704 0.000000 33.147579
Head -47.767987 32.710696 34.792318
656
root -4.854677 33.526951 0.633425 25.609544 64.669071 -104.147196
RightUpLeg 11.892255 -7.691402 -30.064496
RightLeg 54.973915 -0.000000 -0.000000
RightFoot 25.555332 -20.428760 19.088490
RightToeBase 44.546376 -0.000000 -0.000000
LeftUpLeg -122.758332 28.645432 -7.042655
LeftLeg -11.539938 -0.000000 0.000000
LeftFoot -3.515768 5.453563 7.708892
LeftToeBase 2.455233 -0.000000 -0.000000
Spine -73.944865 1.531545 21.696590
RightShoulder -34.789883 2.905387 -36.000299
RightArm -20.585271 -19.240963 42.638389
RightForeArm -36.920400 -0.000000 15.316159
RightHand 3.556416 -0.000000 24.257109
RightHandThumb1 -24.326973 -0.000000 -32.862282
LeftShoulder -25.132297 -15.058651 56.731711
LeftArm 49.059258 -44.548955 -13.019545
LeftForeArm 26.658171 -0.000000 19.658625
LeftHand -28.161525 -0.000000 27.597510
LeftHandThumb1 -26.253704 0.000000 33.147579
Head -47.402435 32.641817 34.730176
657
root -4.785144 33.509319 0.646377 25.799326 65.007143 -103.597301
RightUpLeg 11.735025 -7.788531 -30.275698
RightLeg 55.340859 -0.000000 -0.000000
RightFoot 25.463844 -20.388267 19.218626
RightToeBase 44.451357 -0.000000 -0.000000
LeftUpLeg -121.955051 28.428240 -6.698037
LeftLeg -11.800124 -0.000000 0.000000
LeftFoot -3.460346 5.601687 7.623702
LeftToeBase 2.456482 -0.000000 -0.000000
Spine -73.944810 1.330371 21.674871
RightShoulder -34.673376 3.080658 -35.924476
RightArm -20.705093 -19.275138 42.725884
RightForeArm -36.885235 -0.000000 15.515375
RightHand 3.550731 -0.000000 24.265171
RightHandThumb1 -24.326973 -0.000000 -32.862282
LeftShoulder -24.984475 -14.589623 56.252201
LeftArm 50.052312 -44.056818 -14.845226
LeftForeArm 27.303404 -0.000000 20.545560
LeftHand -28.119296 -0.000000 27.748543
LeftHandThumb1 -26.253704 0.000000 33.147579
Head -47.091467 32.594872 34.632384
658
root -4.716262 33.495597 0.656276 26.181987 65.333050 -102.792570
RightUpLeg 11.629076 -7.867892 -30.609710
RightLeg 55.703970 -0.000000 -0.000000
RightFoot 25.474400 -20.351482 19.205827
RightToeBase 44.502516 -0.000000 -0.000000
LeftUpLeg -121.065002 28.200418 -6.384431
LeftLeg -12.081864 -0.000000 0.000000
LeftFoot -3.369364 5.773027 7.557160
LeftToeBase 2.415542 -0.000000 -0.000000
Spine -73.919644 1.090871 21.567991
RightShoulder -34.500604 3.111504 -35.792929
RightArm -20.693201 -19.335555 42.889772
RightForeArm -36.650525 -0.000000 15.582767
RightHand 3.499026 -0.000000 24.115547
RightHandThumb1 -24.326973 -0.000000 -32.862282
LeftShoulder -24.811061 -13.974927 55.849338
LeftArm 50.948361 -43.547594 -16.910846
LeftForeArm 28.239238 0.000000 21.544866
LeftHand -28.395657 -0.000000 27.948867
LeftHandThumb1 -26.253704 0.000000 33.147579
Head -46.790010 32.634222 34.480695
659
root -4.648487 33.487743 0.665749 26.553045 65.610180 -101.990676
RightUpLeg 11.505990 -7.863690 -30.962955
RightLeg 56.067024 -0.000000 -0.000000
RightFoot 25.419999 -20.346723 19.305846
RightToeBase 44.496337 -0.000000 -0.000000
LeftUpLeg -120.162579 28.056728 -6.039924
LeftLeg -12.349285 -0.000000 0.000000
LeftFoot -3.250414 5.941765 7.428496
LeftToeBase 2.368191 -0.000000 -0.000000
Spine -73.873459 0.934554 21.367783
RightShoulder -34.339848 3.118637 -35.761137
RightArm -20.696976 -19.556669 43.182489
RightForeArm -36.231856 -0.000000 15.429735
RightHand 3.652750 -0.000000 23.894632
RightHandThumb1 -24.326973 -0.000000 -32.862282
LeftShoulder -24.486039 -13.451643 55.463773
LeftArm 51.441105 -42.914257 -18.839097
LeftForeArm 29.191998 -0.000000 22.803549
LeftHand -28.739715 -0.000000 27.906683
LeftHandThumb1 -26.253704 0.000000 33.147579
Head -46.420742 32.521618 34.418504
660
root -4.578714 33.481675 0.673304 26.860407 65.844027 -101.177496
RightUpLeg 11.393287 -7.744939 -31.328611
RightLeg 56.403863 -0.000000 -0.000000
RightFoot 25.548920 -20.398754 19.265367
RightToeBase 44.356002 -0.000000 -0.000000
LeftUpLeg -119.189517 27.954289 -5.677249
LeftLeg -12.609696 -0.000000 0.000000
LeftFoot -3.127766 6.104455 7.367548
LeftToeBase 2.287000 -0.000000 -0.000000
Spine -73.740222 0.813192 21.147312
RightShoulder -34.234286 3.037732 -35.686740
RightArm -20.475960 -19.899500 43.470817
RightForeArm -35.607349 -0.000000 15.072861
RightHand 3.873596 0.000000 23.463134
RightHandThumb1 -24.326973 -0.000000 -32.862282
LeftShoulder -24.187376 -12.853000 55.056217
LeftArm 51.966966 -42.215432 -20.848594
LeftForeArm 30.162151 0.000000 23.966611
LeftHand -28.809470 0.000000 27.747864
LeftHandThumb1 -26.253704 0.000000 33.147579
Head -46.176644 32.483688 34.208036
661
root -4.507791 33.482857 0.681581 27.176734 66.038979 -100.335395
RightUpLeg 11.298003 -7.529498 -31.707960
RightLeg 56.682960 -0.000000 -0.000000
RightFoot 25.568854 -20.377387 19.293246
RightToeBase 44.396351 -0.000000 -0.000000
LeftUpLeg -118.288255 27.848484 -5.424063
LeftLeg -12.767236 -0.000000 0.000000
LeftFoot -3.059160 6.056971 7.225691
LeftToeBase 2.156593 -0.000000 -0.000000
Spine -73.576335 0.723925 20.872866
RightShoulder -34.138287 2.929046 -35.620107
RightArm -20.148242 -20.280769 43.781384
RightForeArm -34.895747 -0.000000 14.477164
RightHand 4.113552 -0.000000 23.190393
RightHandThumb1 -24.326973 -0.000000 -32.862282
LeftShoulder -23.869393 -12.180788 54.637286
LeftArm 52.444393 -41.519475 -22.889310
LeftForeArm 31.148054 -0.000000 25.143195
LeftHand -28.881813 -0.000000 27.205022
LeftHandThumb1 -26.253704 0.000000 33.147579
Head -45.948252 32.437915 34.041912
662
root -4.438495 33.490645 0.690994 27.331867 66.192083 -99.656379
RightUpLeg 11.190698 -7.262690 -32.071359
RightLeg 56.957784 -0.000000 -0.000000
RightFoot 25.446482 -20.281788 19.294595
RightToeBase 44.447658 -0.000000 -0.000000
LeftUpLeg -117.420399 27.861460 -5.076939
LeftLeg -12.801344 -0.000000 0.000000
LeftFoot -3.027308 5.998039 7.110986
LeftToeBase 1.989451 -0.000000 -0.000000
Spine -73.371423 0.729789 20.577968
RightShoulder -34.108760 2.814887 -35.555700
RightArm -19.774649 -20.780480 44.088054
RightForeArm -34.087281 -0.000000 13.798297
RightHand 4.397967 0.000000 22.804839
RightHandThumb1 -24.326973 -0.000000 -32.862282
LeftShoulder -23.509779 -11.537726 54.291219
LeftArm 52.649688 -40.634139 -24.843610
LeftForeArm 31.875814 0.000000 26.472032
LeftHand -29.036060 0.000000 26.472966
LeftHandThumb1 -26.253704 0.000000 33.147579
Head -45.702196 32.313836 33.880295
663
root -4.365688 33.499931 0.699945 27.552301 66.292071 -98.885736
RightUpLeg 11.098771 -6.939345 -32.490623
RightLeg 57.204753 -0.000000 -0.000000
RightFoot 25.391850 -20.032223 19.066637
RightToeBase 44.558581 -0.000000 -0.000000
LeftUpLeg -116.585070 27.825497 -4.906291
LeftLeg -12.866972 -0.000000 0.000000
LeftFoot -2.877603 5.781363 7.193319
LeftToeBase 1.493806 -0.000000 -0.000000
Spine -73.168646 0.750922 20.298942
RightShoulder -33.954758 2.825532 -35.452763
RightArm -19.538574 -21.329345 44.306024
RightForeArm -33.361878 -0.000000 13.258545
RightHand 4.522246 0.000000 22.742923
RightHandThumb1 -24.326973 -0.000000 -32.862282
LeftShoulder -23.124496 -10.730050 53.921973
LeftArm 52.883875 -39.873033 -27.073090
LeftForeArm 32.632184 -0.000000 27.953156
LeftHand -28.877761 -0.000000 25.678719
LeftHandThumb1 -26.253704 0.000000 33.147579
Head -45.348067 32.263337 33.773599
